M48
; DRILL file {KiCad 5.1.5+dfsg1-2build2} date Thu 28 May 2020 06:35:58 PM MDT
; FORMAT={-:-/ absolute / inch / decimal}
; #@! TF.CreationDate,2020-05-28T18:35:58-06:00
; #@! TF.GenerationSoftware,Kicad,Pcbnew,5.1.5+dfsg1-2build2
; #@! TF.FileFunction,Plated,1,2,PTH
FMAT,2
INCH
T1C0.0295
T2C0.0315
T3C0.0433
T4C0.0512
%
G90
G05
T1
X27.8Y-38.7
X27.85Y-38.65
X27.9Y-38.7
X27.55Y-38.55
X27.6Y-38.5
X27.65Y-38.55
X27.8Y-38.95
X27.85Y-39.0
X27.9Y-38.95
T2
X26.5016Y-38.45
X26.6Y-38.45
X27.45Y-38.35
X27.75Y-38.35
X26.15Y-37.95
X26.45Y-37.95
X26.45Y-38.7
X26.75Y-38.7
X27.8Y-38.0
X27.8984Y-38.0
X26.2016Y-38.45
X26.3Y-38.45
X27.45Y-38.2
X27.75Y-38.2
X26.15Y-38.15
X26.45Y-38.15
X27.3Y-38.35
X27.3Y-38.65
X26.55Y-38.05
X26.7469Y-38.05
X26.95Y-38.4
X26.95Y-38.4984
X27.9Y-38.3
X28.2Y-38.3
T3
X28.1Y-38.75
X28.1Y-39.05
X27.6Y-38.75
X27.6Y-39.05
T4
X25.8041Y-38.661
X25.8041Y-38.8579
X26.001Y-38.7594
X25.8041Y-38.2122
X25.8041Y-38.4091
X26.001Y-38.3106
T0
M30
