G04 #@! TF.GenerationSoftware,KiCad,Pcbnew,5.1.5+dfsg1-2build2*
G04 #@! TF.CreationDate,2020-05-28T19:54:34-06:00*
G04 #@! TF.ProjectId,JAT 3t amplifier,4a415420-3374-4206-916d-706c69666965,rev?*
G04 #@! TF.SameCoordinates,Original*
G04 #@! TF.FileFunction,Legend,Top*
G04 #@! TF.FilePolarity,Positive*
%FSLAX46Y46*%
G04 Gerber Fmt 4.6, Leading zero omitted, Abs format (unit mm)*
G04 Created by KiCad (PCBNEW 5.1.5+dfsg1-2build2) date 2020-05-28 19:54:34*
%MOMM*%
%LPD*%
G04 APERTURE LIST*
%ADD10C,0.120000*%
%ADD11C,0.150000*%
G04 APERTURE END LIST*
D10*
X660345302Y-974515000D02*
X660345302Y-974710000D01*
X660345302Y-971470000D02*
X660345302Y-971665000D01*
X655304302Y-972016000D02*
X655304302Y-974165000D01*
X656662302Y-974710000D02*
X660345302Y-974710000D01*
X656662302Y-971470000D02*
X660345302Y-971470000D01*
X655304302Y-972016000D02*
X655304302Y-974165000D01*
X655304302Y-968069000D02*
X655304302Y-969164000D01*
X655304302Y-977015000D02*
X655304302Y-978110000D01*
X660345302Y-974515000D02*
X660345302Y-978110000D01*
X660345302Y-968069000D02*
X660345302Y-971665000D01*
X655304302Y-978110000D02*
X660345302Y-978110000D01*
X655304302Y-968069000D02*
X660345302Y-968069000D01*
X672370000Y-981610000D02*
X672370000Y-981940000D01*
X678910000Y-981610000D02*
X672370000Y-981610000D01*
X678910000Y-981940000D02*
X678910000Y-981610000D01*
X672370000Y-984350000D02*
X672370000Y-984020000D01*
X678910000Y-984350000D02*
X672370000Y-984350000D01*
X678910000Y-984020000D02*
X678910000Y-984350000D01*
X669955241Y-978784000D02*
X669955241Y-978154000D01*
X670270241Y-978469000D02*
X669640241Y-978469000D01*
X663529000Y-977032000D02*
X663529000Y-976228000D01*
X663569000Y-977263000D02*
X663569000Y-975997000D01*
X663609000Y-977432000D02*
X663609000Y-975828000D01*
X663649000Y-977570000D02*
X663649000Y-975690000D01*
X663689000Y-977689000D02*
X663689000Y-975571000D01*
X663729000Y-977795000D02*
X663729000Y-975465000D01*
X663769000Y-977892000D02*
X663769000Y-975368000D01*
X663809000Y-977980000D02*
X663809000Y-975280000D01*
X663849000Y-978062000D02*
X663849000Y-975198000D01*
X663889000Y-978139000D02*
X663889000Y-975121000D01*
X663929000Y-978211000D02*
X663929000Y-975049000D01*
X663969000Y-978280000D02*
X663969000Y-974980000D01*
X664009000Y-978344000D02*
X664009000Y-974916000D01*
X664049000Y-978406000D02*
X664049000Y-974854000D01*
X664089000Y-978464000D02*
X664089000Y-974796000D01*
X664129000Y-978520000D02*
X664129000Y-974740000D01*
X664169000Y-978574000D02*
X664169000Y-974686000D01*
X664209000Y-978625000D02*
X664209000Y-974635000D01*
X664249000Y-978674000D02*
X664249000Y-974586000D01*
X664289000Y-978722000D02*
X664289000Y-974538000D01*
X664329000Y-978767000D02*
X664329000Y-974493000D01*
X664369000Y-978812000D02*
X664369000Y-974448000D01*
X664409000Y-978854000D02*
X664409000Y-974406000D01*
X664449000Y-978895000D02*
X664449000Y-974365000D01*
X664489000Y-975590000D02*
X664489000Y-974325000D01*
X664489000Y-978935000D02*
X664489000Y-977670000D01*
X664529000Y-975590000D02*
X664529000Y-974287000D01*
X664529000Y-978973000D02*
X664529000Y-977670000D01*
X664569000Y-975590000D02*
X664569000Y-974250000D01*
X664569000Y-979010000D02*
X664569000Y-977670000D01*
X664609000Y-975590000D02*
X664609000Y-974214000D01*
X664609000Y-979046000D02*
X664609000Y-977670000D01*
X664649000Y-975590000D02*
X664649000Y-974180000D01*
X664649000Y-979080000D02*
X664649000Y-977670000D01*
X664689000Y-975590000D02*
X664689000Y-974146000D01*
X664689000Y-979114000D02*
X664689000Y-977670000D01*
X664729000Y-975590000D02*
X664729000Y-974114000D01*
X664729000Y-979146000D02*
X664729000Y-977670000D01*
X664769000Y-975590000D02*
X664769000Y-974082000D01*
X664769000Y-979178000D02*
X664769000Y-977670000D01*
X664809000Y-975590000D02*
X664809000Y-974052000D01*
X664809000Y-979208000D02*
X664809000Y-977670000D01*
X664849000Y-975590000D02*
X664849000Y-974023000D01*
X664849000Y-979237000D02*
X664849000Y-977670000D01*
X664889000Y-975590000D02*
X664889000Y-973994000D01*
X664889000Y-979266000D02*
X664889000Y-977670000D01*
X664929000Y-975590000D02*
X664929000Y-973966000D01*
X664929000Y-979294000D02*
X664929000Y-977670000D01*
X664969000Y-975590000D02*
X664969000Y-973940000D01*
X664969000Y-979320000D02*
X664969000Y-977670000D01*
X665009000Y-975590000D02*
X665009000Y-973914000D01*
X665009000Y-979346000D02*
X665009000Y-977670000D01*
X665049000Y-975590000D02*
X665049000Y-973888000D01*
X665049000Y-979372000D02*
X665049000Y-977670000D01*
X665089000Y-975590000D02*
X665089000Y-973864000D01*
X665089000Y-979396000D02*
X665089000Y-977670000D01*
X665129000Y-975590000D02*
X665129000Y-973840000D01*
X665129000Y-979420000D02*
X665129000Y-977670000D01*
X665169000Y-975590000D02*
X665169000Y-973818000D01*
X665169000Y-979442000D02*
X665169000Y-977670000D01*
X665209000Y-975590000D02*
X665209000Y-973796000D01*
X665209000Y-979464000D02*
X665209000Y-977670000D01*
X665249000Y-975590000D02*
X665249000Y-973774000D01*
X665249000Y-979486000D02*
X665249000Y-977670000D01*
X665289000Y-975590000D02*
X665289000Y-973754000D01*
X665289000Y-979506000D02*
X665289000Y-977670000D01*
X665329000Y-975590000D02*
X665329000Y-973734000D01*
X665329000Y-979526000D02*
X665329000Y-977670000D01*
X665369000Y-975590000D02*
X665369000Y-973714000D01*
X665369000Y-979546000D02*
X665369000Y-977670000D01*
X665409000Y-975590000D02*
X665409000Y-973696000D01*
X665409000Y-979564000D02*
X665409000Y-977670000D01*
X665449000Y-975590000D02*
X665449000Y-973678000D01*
X665449000Y-979582000D02*
X665449000Y-977670000D01*
X665489000Y-975590000D02*
X665489000Y-973660000D01*
X665489000Y-979600000D02*
X665489000Y-977670000D01*
X665529000Y-975590000D02*
X665529000Y-973644000D01*
X665529000Y-979616000D02*
X665529000Y-977670000D01*
X665569000Y-975590000D02*
X665569000Y-973628000D01*
X665569000Y-979632000D02*
X665569000Y-977670000D01*
X665609000Y-975590000D02*
X665609000Y-973612000D01*
X665609000Y-979648000D02*
X665609000Y-977670000D01*
X665649000Y-975590000D02*
X665649000Y-973597000D01*
X665649000Y-979663000D02*
X665649000Y-977670000D01*
X665689000Y-975590000D02*
X665689000Y-973583000D01*
X665689000Y-979677000D02*
X665689000Y-977670000D01*
X665729000Y-975590000D02*
X665729000Y-973569000D01*
X665729000Y-979691000D02*
X665729000Y-977670000D01*
X665769000Y-975590000D02*
X665769000Y-973556000D01*
X665769000Y-979704000D02*
X665769000Y-977670000D01*
X665809000Y-975590000D02*
X665809000Y-973544000D01*
X665809000Y-979716000D02*
X665809000Y-977670000D01*
X665849000Y-975590000D02*
X665849000Y-973532000D01*
X665849000Y-979728000D02*
X665849000Y-977670000D01*
X665889000Y-975590000D02*
X665889000Y-973520000D01*
X665889000Y-979740000D02*
X665889000Y-977670000D01*
X665929000Y-975590000D02*
X665929000Y-973509000D01*
X665929000Y-979751000D02*
X665929000Y-977670000D01*
X665969000Y-975590000D02*
X665969000Y-973499000D01*
X665969000Y-979761000D02*
X665969000Y-977670000D01*
X666009000Y-975590000D02*
X666009000Y-973489000D01*
X666009000Y-979771000D02*
X666009000Y-977670000D01*
X666049000Y-975590000D02*
X666049000Y-973480000D01*
X666049000Y-979780000D02*
X666049000Y-977670000D01*
X666090000Y-975590000D02*
X666090000Y-973471000D01*
X666090000Y-979789000D02*
X666090000Y-977670000D01*
X666130000Y-975590000D02*
X666130000Y-973463000D01*
X666130000Y-979797000D02*
X666130000Y-977670000D01*
X666170000Y-975590000D02*
X666170000Y-973455000D01*
X666170000Y-979805000D02*
X666170000Y-977670000D01*
X666210000Y-975590000D02*
X666210000Y-973448000D01*
X666210000Y-979812000D02*
X666210000Y-977670000D01*
X666250000Y-975590000D02*
X666250000Y-973441000D01*
X666250000Y-979819000D02*
X666250000Y-977670000D01*
X666290000Y-975590000D02*
X666290000Y-973435000D01*
X666290000Y-979825000D02*
X666290000Y-977670000D01*
X666330000Y-975590000D02*
X666330000Y-973429000D01*
X666330000Y-979831000D02*
X666330000Y-977670000D01*
X666370000Y-975590000D02*
X666370000Y-973424000D01*
X666370000Y-979836000D02*
X666370000Y-977670000D01*
X666410000Y-975590000D02*
X666410000Y-973419000D01*
X666410000Y-979841000D02*
X666410000Y-977670000D01*
X666450000Y-975590000D02*
X666450000Y-973415000D01*
X666450000Y-979845000D02*
X666450000Y-977670000D01*
X666490000Y-975590000D02*
X666490000Y-973412000D01*
X666490000Y-979848000D02*
X666490000Y-977670000D01*
X666530000Y-975590000D02*
X666530000Y-973408000D01*
X666530000Y-979852000D02*
X666530000Y-977670000D01*
X666570000Y-979854000D02*
X666570000Y-973406000D01*
X666610000Y-979857000D02*
X666610000Y-973403000D01*
X666650000Y-979858000D02*
X666650000Y-973402000D01*
X666690000Y-979860000D02*
X666690000Y-973400000D01*
X666730000Y-979860000D02*
X666730000Y-973400000D01*
X666770000Y-979860000D02*
X666770000Y-973400000D01*
X670040000Y-976630000D02*
G75*
G03X670040000Y-976630000I-3270000J0D01*
G01*
X694150000Y-971650000D02*
X694150000Y-971320000D01*
X687610000Y-971650000D02*
X694150000Y-971650000D01*
X687610000Y-971320000D02*
X687610000Y-971650000D01*
X694150000Y-968910000D02*
X694150000Y-969240000D01*
X687610000Y-968910000D02*
X694150000Y-968910000D01*
X687610000Y-969240000D02*
X687610000Y-968910000D01*
X687610000Y-972720000D02*
X687610000Y-973050000D01*
X694150000Y-972720000D02*
X687610000Y-972720000D01*
X694150000Y-973050000D02*
X694150000Y-972720000D01*
X687610000Y-975460000D02*
X687610000Y-975130000D01*
X694150000Y-975460000D02*
X687610000Y-975460000D01*
X694150000Y-975130000D02*
X694150000Y-975460000D01*
X660345302Y-985915000D02*
X660345302Y-986110000D01*
X660345302Y-982870000D02*
X660345302Y-983065000D01*
X655304302Y-983416000D02*
X655304302Y-985565000D01*
X656662302Y-986110000D02*
X660345302Y-986110000D01*
X656662302Y-982870000D02*
X660345302Y-982870000D01*
X655304302Y-983416000D02*
X655304302Y-985565000D01*
X655304302Y-979469000D02*
X655304302Y-980564000D01*
X655304302Y-988415000D02*
X655304302Y-989510000D01*
X660345302Y-985915000D02*
X660345302Y-989510000D01*
X660345302Y-979469000D02*
X660345302Y-983065000D01*
X655304302Y-989510000D02*
X660345302Y-989510000D01*
X655304302Y-979469000D02*
X660345302Y-979469000D01*
X673830251Y-964415000D02*
X673830251Y-965015000D01*
X673530251Y-964715000D02*
X674130251Y-964715000D01*
X679804417Y-967530000D02*
G75*
G02X673935584Y-967530000I-2934417J1060000D01*
G01*
X679804417Y-965410000D02*
G75*
G03X673935584Y-965410000I-2934417J-1060000D01*
G01*
X699040000Y-971450000D02*
X699040000Y-971780000D01*
X705580000Y-971450000D02*
X699040000Y-971450000D01*
X705580000Y-971780000D02*
X705580000Y-971450000D01*
X699040000Y-974190000D02*
X699040000Y-973860000D01*
X705580000Y-974190000D02*
X699040000Y-974190000D01*
X705580000Y-973860000D02*
X705580000Y-974190000D01*
X681890000Y-981170000D02*
X682220000Y-981170000D01*
X681890000Y-974630000D02*
X681890000Y-981170000D01*
X682220000Y-974630000D02*
X681890000Y-974630000D01*
X684630000Y-981170000D02*
X684300000Y-981170000D01*
X684630000Y-974630000D02*
X684630000Y-981170000D01*
X684300000Y-974630000D02*
X684630000Y-974630000D01*
X671290000Y-970380000D02*
X671290000Y-970050000D01*
X664750000Y-970380000D02*
X671290000Y-970380000D01*
X664750000Y-970050000D02*
X664750000Y-970380000D01*
X671290000Y-967640000D02*
X671290000Y-967970000D01*
X664750000Y-967640000D02*
X671290000Y-967640000D01*
X664750000Y-967970000D02*
X664750000Y-967640000D01*
X664750000Y-962560000D02*
X664750000Y-962890000D01*
X671290000Y-962560000D02*
X664750000Y-962560000D01*
X671290000Y-962890000D02*
X671290000Y-962560000D01*
X664750000Y-965300000D02*
X664750000Y-964970000D01*
X671290000Y-965300000D02*
X664750000Y-965300000D01*
X671290000Y-964970000D02*
X671290000Y-965300000D01*
X699068478Y-984818478D02*
G75*
G03X697230000Y-980380000I-1838478J1838478D01*
G01*
X695391522Y-984818478D02*
G75*
G02X697230000Y-980380000I1838478J1838478D01*
G01*
X695430000Y-984830000D02*
X699030000Y-984830000D01*
X695391522Y-987491522D02*
G75*
G03X697230000Y-991930000I1838478J-1838478D01*
G01*
X699068478Y-987491522D02*
G75*
G02X697230000Y-991930000I-1838478J-1838478D01*
G01*
X699030000Y-987480000D02*
X695430000Y-987480000D01*
X692718478Y-981008478D02*
G75*
G03X690880000Y-976570000I-1838478J1838478D01*
G01*
X689041522Y-981008478D02*
G75*
G02X690880000Y-976570000I1838478J1838478D01*
G01*
X689080000Y-981020000D02*
X692680000Y-981020000D01*
X705050000Y-986120000D02*
X702110000Y-986120000D01*
X705050000Y-986360000D02*
X702110000Y-986360000D01*
X705050000Y-986240000D02*
X702110000Y-986240000D01*
X702110000Y-990780000D02*
X702240000Y-990780000D01*
X702110000Y-985340000D02*
X702110000Y-990780000D01*
X702240000Y-985340000D02*
X702110000Y-985340000D01*
X705050000Y-990780000D02*
X704920000Y-990780000D01*
X705050000Y-985340000D02*
X705050000Y-990780000D01*
X704920000Y-985340000D02*
X705050000Y-985340000D01*
X689410000Y-990000000D02*
X692350000Y-990000000D01*
X689410000Y-989760000D02*
X692350000Y-989760000D01*
X689410000Y-989880000D02*
X692350000Y-989880000D01*
X692350000Y-985340000D02*
X692220000Y-985340000D01*
X692350000Y-990780000D02*
X692350000Y-985340000D01*
X692220000Y-990780000D02*
X692350000Y-990780000D01*
X689410000Y-985340000D02*
X689540000Y-985340000D01*
X689410000Y-990780000D02*
X689410000Y-985340000D01*
X689540000Y-990780000D02*
X689410000Y-990780000D01*
X694470302Y-962485000D02*
X694470302Y-963285000D01*
X694070302Y-962885000D02*
X694870302Y-962885000D01*
X702561000Y-964667000D02*
X702561000Y-965733000D01*
X702521000Y-964432000D02*
X702521000Y-965968000D01*
X702481000Y-964252000D02*
X702481000Y-966148000D01*
X702441000Y-964102000D02*
X702441000Y-966298000D01*
X702401000Y-963971000D02*
X702401000Y-966429000D01*
X702361000Y-963854000D02*
X702361000Y-966546000D01*
X702321000Y-963747000D02*
X702321000Y-966653000D01*
X702281000Y-963648000D02*
X702281000Y-966752000D01*
X702241000Y-963555000D02*
X702241000Y-966845000D01*
X702201000Y-963469000D02*
X702201000Y-966931000D01*
X702161000Y-963387000D02*
X702161000Y-967013000D01*
X702121000Y-963310000D02*
X702121000Y-967090000D01*
X702081000Y-963236000D02*
X702081000Y-967164000D01*
X702041000Y-963166000D02*
X702041000Y-967234000D01*
X702001000Y-963098000D02*
X702001000Y-967302000D01*
X701961000Y-963034000D02*
X701961000Y-967366000D01*
X701921000Y-962972000D02*
X701921000Y-967428000D01*
X701881000Y-962913000D02*
X701881000Y-967487000D01*
X701841000Y-962855000D02*
X701841000Y-967545000D01*
X701801000Y-962800000D02*
X701801000Y-967600000D01*
X701761000Y-962746000D02*
X701761000Y-967654000D01*
X701721000Y-962695000D02*
X701721000Y-967705000D01*
X701681000Y-962644000D02*
X701681000Y-967756000D01*
X701641000Y-962596000D02*
X701641000Y-967804000D01*
X701601000Y-962549000D02*
X701601000Y-967851000D01*
X701561000Y-962503000D02*
X701561000Y-967897000D01*
X701521000Y-962459000D02*
X701521000Y-967941000D01*
X701481000Y-962416000D02*
X701481000Y-967984000D01*
X701441000Y-962374000D02*
X701441000Y-968026000D01*
X701401000Y-962333000D02*
X701401000Y-968067000D01*
X701361000Y-962293000D02*
X701361000Y-968107000D01*
X701321000Y-962255000D02*
X701321000Y-968145000D01*
X701281000Y-962217000D02*
X701281000Y-968183000D01*
X701241000Y-962181000D02*
X701241000Y-968219000D01*
X701201000Y-962145000D02*
X701201000Y-968255000D01*
X701161000Y-962110000D02*
X701161000Y-968290000D01*
X701121000Y-962076000D02*
X701121000Y-968324000D01*
X701081000Y-962044000D02*
X701081000Y-968356000D01*
X701041000Y-962011000D02*
X701041000Y-968389000D01*
X701001000Y-961980000D02*
X701001000Y-968420000D01*
X700961000Y-961950000D02*
X700961000Y-968450000D01*
X700921000Y-961920000D02*
X700921000Y-968480000D01*
X700881000Y-961891000D02*
X700881000Y-968509000D01*
X700841000Y-961862000D02*
X700841000Y-968538000D01*
X700801000Y-961835000D02*
X700801000Y-968565000D01*
X700761000Y-966240000D02*
X700761000Y-968592000D01*
X700761000Y-961808000D02*
X700761000Y-964160000D01*
X700721000Y-966240000D02*
X700721000Y-968618000D01*
X700721000Y-961782000D02*
X700721000Y-964160000D01*
X700681000Y-966240000D02*
X700681000Y-968644000D01*
X700681000Y-961756000D02*
X700681000Y-964160000D01*
X700641000Y-966240000D02*
X700641000Y-968669000D01*
X700641000Y-961731000D02*
X700641000Y-964160000D01*
X700601000Y-966240000D02*
X700601000Y-968693000D01*
X700601000Y-961707000D02*
X700601000Y-964160000D01*
X700561000Y-966240000D02*
X700561000Y-968717000D01*
X700561000Y-961683000D02*
X700561000Y-964160000D01*
X700521000Y-966240000D02*
X700521000Y-968740000D01*
X700521000Y-961660000D02*
X700521000Y-964160000D01*
X700481000Y-966240000D02*
X700481000Y-968762000D01*
X700481000Y-961638000D02*
X700481000Y-964160000D01*
X700441000Y-966240000D02*
X700441000Y-968784000D01*
X700441000Y-961616000D02*
X700441000Y-964160000D01*
X700401000Y-966240000D02*
X700401000Y-968806000D01*
X700401000Y-961594000D02*
X700401000Y-964160000D01*
X700361000Y-966240000D02*
X700361000Y-968827000D01*
X700361000Y-961573000D02*
X700361000Y-964160000D01*
X700321000Y-966240000D02*
X700321000Y-968847000D01*
X700321000Y-961553000D02*
X700321000Y-964160000D01*
X700281000Y-966240000D02*
X700281000Y-968866000D01*
X700281000Y-961534000D02*
X700281000Y-964160000D01*
X700241000Y-966240000D02*
X700241000Y-968886000D01*
X700241000Y-961514000D02*
X700241000Y-964160000D01*
X700201000Y-966240000D02*
X700201000Y-968904000D01*
X700201000Y-961496000D02*
X700201000Y-964160000D01*
X700161000Y-966240000D02*
X700161000Y-968922000D01*
X700161000Y-961478000D02*
X700161000Y-964160000D01*
X700121000Y-966240000D02*
X700121000Y-968940000D01*
X700121000Y-961460000D02*
X700121000Y-964160000D01*
X700081000Y-966240000D02*
X700081000Y-968957000D01*
X700081000Y-961443000D02*
X700081000Y-964160000D01*
X700041000Y-966240000D02*
X700041000Y-968974000D01*
X700041000Y-961426000D02*
X700041000Y-964160000D01*
X700001000Y-966240000D02*
X700001000Y-968990000D01*
X700001000Y-961410000D02*
X700001000Y-964160000D01*
X699961000Y-966240000D02*
X699961000Y-969005000D01*
X699961000Y-961395000D02*
X699961000Y-964160000D01*
X699921000Y-966240000D02*
X699921000Y-969021000D01*
X699921000Y-961379000D02*
X699921000Y-964160000D01*
X699881000Y-966240000D02*
X699881000Y-969035000D01*
X699881000Y-961365000D02*
X699881000Y-964160000D01*
X699841000Y-966240000D02*
X699841000Y-969050000D01*
X699841000Y-961350000D02*
X699841000Y-964160000D01*
X699801000Y-966240000D02*
X699801000Y-969063000D01*
X699801000Y-961337000D02*
X699801000Y-964160000D01*
X699761000Y-966240000D02*
X699761000Y-969077000D01*
X699761000Y-961323000D02*
X699761000Y-964160000D01*
X699721000Y-966240000D02*
X699721000Y-969089000D01*
X699721000Y-961311000D02*
X699721000Y-964160000D01*
X699681000Y-966240000D02*
X699681000Y-969102000D01*
X699681000Y-961298000D02*
X699681000Y-964160000D01*
X699641000Y-966240000D02*
X699641000Y-969114000D01*
X699641000Y-961286000D02*
X699641000Y-964160000D01*
X699601000Y-966240000D02*
X699601000Y-969125000D01*
X699601000Y-961275000D02*
X699601000Y-964160000D01*
X699561000Y-966240000D02*
X699561000Y-969136000D01*
X699561000Y-961264000D02*
X699561000Y-964160000D01*
X699521000Y-966240000D02*
X699521000Y-969147000D01*
X699521000Y-961253000D02*
X699521000Y-964160000D01*
X699481000Y-966240000D02*
X699481000Y-969157000D01*
X699481000Y-961243000D02*
X699481000Y-964160000D01*
X699441000Y-966240000D02*
X699441000Y-969167000D01*
X699441000Y-961233000D02*
X699441000Y-964160000D01*
X699401000Y-966240000D02*
X699401000Y-969176000D01*
X699401000Y-961224000D02*
X699401000Y-964160000D01*
X699361000Y-966240000D02*
X699361000Y-969185000D01*
X699361000Y-961215000D02*
X699361000Y-964160000D01*
X699321000Y-966240000D02*
X699321000Y-969194000D01*
X699321000Y-961206000D02*
X699321000Y-964160000D01*
X699281000Y-966240000D02*
X699281000Y-969202000D01*
X699281000Y-961198000D02*
X699281000Y-964160000D01*
X699241000Y-966240000D02*
X699241000Y-969210000D01*
X699241000Y-961190000D02*
X699241000Y-964160000D01*
X699201000Y-966240000D02*
X699201000Y-969217000D01*
X699201000Y-961183000D02*
X699201000Y-964160000D01*
X699160000Y-966240000D02*
X699160000Y-969224000D01*
X699160000Y-961176000D02*
X699160000Y-964160000D01*
X699120000Y-966240000D02*
X699120000Y-969230000D01*
X699120000Y-961170000D02*
X699120000Y-964160000D01*
X699080000Y-966240000D02*
X699080000Y-969237000D01*
X699080000Y-961163000D02*
X699080000Y-964160000D01*
X699040000Y-966240000D02*
X699040000Y-969242000D01*
X699040000Y-961158000D02*
X699040000Y-964160000D01*
X699000000Y-966240000D02*
X699000000Y-969248000D01*
X699000000Y-961152000D02*
X699000000Y-964160000D01*
X698960000Y-966240000D02*
X698960000Y-969252000D01*
X698960000Y-961148000D02*
X698960000Y-964160000D01*
X698920000Y-966240000D02*
X698920000Y-969257000D01*
X698920000Y-961143000D02*
X698920000Y-964160000D01*
X698880000Y-966240000D02*
X698880000Y-969261000D01*
X698880000Y-961139000D02*
X698880000Y-964160000D01*
X698840000Y-966240000D02*
X698840000Y-969265000D01*
X698840000Y-961135000D02*
X698840000Y-964160000D01*
X698800000Y-966240000D02*
X698800000Y-969268000D01*
X698800000Y-961132000D02*
X698800000Y-964160000D01*
X698760000Y-966240000D02*
X698760000Y-969271000D01*
X698760000Y-961129000D02*
X698760000Y-964160000D01*
X698720000Y-966240000D02*
X698720000Y-969274000D01*
X698720000Y-961126000D02*
X698720000Y-964160000D01*
X698680000Y-961124000D02*
X698680000Y-969276000D01*
X698640000Y-961123000D02*
X698640000Y-969277000D01*
X698600000Y-961121000D02*
X698600000Y-969279000D01*
X698560000Y-961120000D02*
X698560000Y-969280000D01*
X698520000Y-961120000D02*
X698520000Y-969280000D01*
X698480000Y-961120000D02*
X698480000Y-969280000D01*
X702600000Y-965200000D02*
G75*
G03X702600000Y-965200000I-4120000J0D01*
G01*
X689224000Y-961994759D02*
X688594000Y-961994759D01*
X688909000Y-961679759D02*
X688909000Y-962309759D01*
X687472000Y-968421000D02*
X686668000Y-968421000D01*
X687703000Y-968381000D02*
X686437000Y-968381000D01*
X687872000Y-968341000D02*
X686268000Y-968341000D01*
X688010000Y-968301000D02*
X686130000Y-968301000D01*
X688129000Y-968261000D02*
X686011000Y-968261000D01*
X688235000Y-968221000D02*
X685905000Y-968221000D01*
X688332000Y-968181000D02*
X685808000Y-968181000D01*
X688420000Y-968141000D02*
X685720000Y-968141000D01*
X688502000Y-968101000D02*
X685638000Y-968101000D01*
X688579000Y-968061000D02*
X685561000Y-968061000D01*
X688651000Y-968021000D02*
X685489000Y-968021000D01*
X688720000Y-967981000D02*
X685420000Y-967981000D01*
X688784000Y-967941000D02*
X685356000Y-967941000D01*
X688846000Y-967901000D02*
X685294000Y-967901000D01*
X688904000Y-967861000D02*
X685236000Y-967861000D01*
X688960000Y-967821000D02*
X685180000Y-967821000D01*
X689014000Y-967781000D02*
X685126000Y-967781000D01*
X689065000Y-967741000D02*
X685075000Y-967741000D01*
X689114000Y-967701000D02*
X685026000Y-967701000D01*
X689162000Y-967661000D02*
X684978000Y-967661000D01*
X689207000Y-967621000D02*
X684933000Y-967621000D01*
X689252000Y-967581000D02*
X684888000Y-967581000D01*
X689294000Y-967541000D02*
X684846000Y-967541000D01*
X689335000Y-967501000D02*
X684805000Y-967501000D01*
X686030000Y-967461000D02*
X684765000Y-967461000D01*
X689375000Y-967461000D02*
X688110000Y-967461000D01*
X686030000Y-967421000D02*
X684727000Y-967421000D01*
X689413000Y-967421000D02*
X688110000Y-967421000D01*
X686030000Y-967381000D02*
X684690000Y-967381000D01*
X689450000Y-967381000D02*
X688110000Y-967381000D01*
X686030000Y-967341000D02*
X684654000Y-967341000D01*
X689486000Y-967341000D02*
X688110000Y-967341000D01*
X686030000Y-967301000D02*
X684620000Y-967301000D01*
X689520000Y-967301000D02*
X688110000Y-967301000D01*
X686030000Y-967261000D02*
X684586000Y-967261000D01*
X689554000Y-967261000D02*
X688110000Y-967261000D01*
X686030000Y-967221000D02*
X684554000Y-967221000D01*
X689586000Y-967221000D02*
X688110000Y-967221000D01*
X686030000Y-967181000D02*
X684522000Y-967181000D01*
X689618000Y-967181000D02*
X688110000Y-967181000D01*
X686030000Y-967141000D02*
X684492000Y-967141000D01*
X689648000Y-967141000D02*
X688110000Y-967141000D01*
X686030000Y-967101000D02*
X684463000Y-967101000D01*
X689677000Y-967101000D02*
X688110000Y-967101000D01*
X686030000Y-967061000D02*
X684434000Y-967061000D01*
X689706000Y-967061000D02*
X688110000Y-967061000D01*
X686030000Y-967021000D02*
X684406000Y-967021000D01*
X689734000Y-967021000D02*
X688110000Y-967021000D01*
X686030000Y-966981000D02*
X684380000Y-966981000D01*
X689760000Y-966981000D02*
X688110000Y-966981000D01*
X686030000Y-966941000D02*
X684354000Y-966941000D01*
X689786000Y-966941000D02*
X688110000Y-966941000D01*
X686030000Y-966901000D02*
X684328000Y-966901000D01*
X689812000Y-966901000D02*
X688110000Y-966901000D01*
X686030000Y-966861000D02*
X684304000Y-966861000D01*
X689836000Y-966861000D02*
X688110000Y-966861000D01*
X686030000Y-966821000D02*
X684280000Y-966821000D01*
X689860000Y-966821000D02*
X688110000Y-966821000D01*
X686030000Y-966781000D02*
X684258000Y-966781000D01*
X689882000Y-966781000D02*
X688110000Y-966781000D01*
X686030000Y-966741000D02*
X684236000Y-966741000D01*
X689904000Y-966741000D02*
X688110000Y-966741000D01*
X686030000Y-966701000D02*
X684214000Y-966701000D01*
X689926000Y-966701000D02*
X688110000Y-966701000D01*
X686030000Y-966661000D02*
X684194000Y-966661000D01*
X689946000Y-966661000D02*
X688110000Y-966661000D01*
X686030000Y-966621000D02*
X684174000Y-966621000D01*
X689966000Y-966621000D02*
X688110000Y-966621000D01*
X686030000Y-966581000D02*
X684154000Y-966581000D01*
X689986000Y-966581000D02*
X688110000Y-966581000D01*
X686030000Y-966541000D02*
X684136000Y-966541000D01*
X690004000Y-966541000D02*
X688110000Y-966541000D01*
X686030000Y-966501000D02*
X684118000Y-966501000D01*
X690022000Y-966501000D02*
X688110000Y-966501000D01*
X686030000Y-966461000D02*
X684100000Y-966461000D01*
X690040000Y-966461000D02*
X688110000Y-966461000D01*
X686030000Y-966421000D02*
X684084000Y-966421000D01*
X690056000Y-966421000D02*
X688110000Y-966421000D01*
X686030000Y-966381000D02*
X684068000Y-966381000D01*
X690072000Y-966381000D02*
X688110000Y-966381000D01*
X686030000Y-966341000D02*
X684052000Y-966341000D01*
X690088000Y-966341000D02*
X688110000Y-966341000D01*
X686030000Y-966301000D02*
X684037000Y-966301000D01*
X690103000Y-966301000D02*
X688110000Y-966301000D01*
X686030000Y-966261000D02*
X684023000Y-966261000D01*
X690117000Y-966261000D02*
X688110000Y-966261000D01*
X686030000Y-966221000D02*
X684009000Y-966221000D01*
X690131000Y-966221000D02*
X688110000Y-966221000D01*
X686030000Y-966181000D02*
X683996000Y-966181000D01*
X690144000Y-966181000D02*
X688110000Y-966181000D01*
X686030000Y-966141000D02*
X683984000Y-966141000D01*
X690156000Y-966141000D02*
X688110000Y-966141000D01*
X686030000Y-966101000D02*
X683972000Y-966101000D01*
X690168000Y-966101000D02*
X688110000Y-966101000D01*
X686030000Y-966061000D02*
X683960000Y-966061000D01*
X690180000Y-966061000D02*
X688110000Y-966061000D01*
X686030000Y-966021000D02*
X683949000Y-966021000D01*
X690191000Y-966021000D02*
X688110000Y-966021000D01*
X686030000Y-965981000D02*
X683939000Y-965981000D01*
X690201000Y-965981000D02*
X688110000Y-965981000D01*
X686030000Y-965941000D02*
X683929000Y-965941000D01*
X690211000Y-965941000D02*
X688110000Y-965941000D01*
X686030000Y-965901000D02*
X683920000Y-965901000D01*
X690220000Y-965901000D02*
X688110000Y-965901000D01*
X686030000Y-965860000D02*
X683911000Y-965860000D01*
X690229000Y-965860000D02*
X688110000Y-965860000D01*
X686030000Y-965820000D02*
X683903000Y-965820000D01*
X690237000Y-965820000D02*
X688110000Y-965820000D01*
X686030000Y-965780000D02*
X683895000Y-965780000D01*
X690245000Y-965780000D02*
X688110000Y-965780000D01*
X686030000Y-965740000D02*
X683888000Y-965740000D01*
X690252000Y-965740000D02*
X688110000Y-965740000D01*
X686030000Y-965700000D02*
X683881000Y-965700000D01*
X690259000Y-965700000D02*
X688110000Y-965700000D01*
X686030000Y-965660000D02*
X683875000Y-965660000D01*
X690265000Y-965660000D02*
X688110000Y-965660000D01*
X686030000Y-965620000D02*
X683869000Y-965620000D01*
X690271000Y-965620000D02*
X688110000Y-965620000D01*
X686030000Y-965580000D02*
X683864000Y-965580000D01*
X690276000Y-965580000D02*
X688110000Y-965580000D01*
X686030000Y-965540000D02*
X683859000Y-965540000D01*
X690281000Y-965540000D02*
X688110000Y-965540000D01*
X686030000Y-965500000D02*
X683855000Y-965500000D01*
X690285000Y-965500000D02*
X688110000Y-965500000D01*
X686030000Y-965460000D02*
X683852000Y-965460000D01*
X690288000Y-965460000D02*
X688110000Y-965460000D01*
X686030000Y-965420000D02*
X683848000Y-965420000D01*
X690292000Y-965420000D02*
X688110000Y-965420000D01*
X690294000Y-965380000D02*
X683846000Y-965380000D01*
X690297000Y-965340000D02*
X683843000Y-965340000D01*
X690298000Y-965300000D02*
X683842000Y-965300000D01*
X690300000Y-965260000D02*
X683840000Y-965260000D01*
X690300000Y-965220000D02*
X683840000Y-965220000D01*
X690300000Y-965180000D02*
X683840000Y-965180000D01*
X690340000Y-965180000D02*
G75*
G03X690340000Y-965180000I-3270000J0D01*
G01*
X677575241Y-978784000D02*
X677575241Y-978154000D01*
X677890241Y-978469000D02*
X677260241Y-978469000D01*
X671149000Y-977032000D02*
X671149000Y-976228000D01*
X671189000Y-977263000D02*
X671189000Y-975997000D01*
X671229000Y-977432000D02*
X671229000Y-975828000D01*
X671269000Y-977570000D02*
X671269000Y-975690000D01*
X671309000Y-977689000D02*
X671309000Y-975571000D01*
X671349000Y-977795000D02*
X671349000Y-975465000D01*
X671389000Y-977892000D02*
X671389000Y-975368000D01*
X671429000Y-977980000D02*
X671429000Y-975280000D01*
X671469000Y-978062000D02*
X671469000Y-975198000D01*
X671509000Y-978139000D02*
X671509000Y-975121000D01*
X671549000Y-978211000D02*
X671549000Y-975049000D01*
X671589000Y-978280000D02*
X671589000Y-974980000D01*
X671629000Y-978344000D02*
X671629000Y-974916000D01*
X671669000Y-978406000D02*
X671669000Y-974854000D01*
X671709000Y-978464000D02*
X671709000Y-974796000D01*
X671749000Y-978520000D02*
X671749000Y-974740000D01*
X671789000Y-978574000D02*
X671789000Y-974686000D01*
X671829000Y-978625000D02*
X671829000Y-974635000D01*
X671869000Y-978674000D02*
X671869000Y-974586000D01*
X671909000Y-978722000D02*
X671909000Y-974538000D01*
X671949000Y-978767000D02*
X671949000Y-974493000D01*
X671989000Y-978812000D02*
X671989000Y-974448000D01*
X672029000Y-978854000D02*
X672029000Y-974406000D01*
X672069000Y-978895000D02*
X672069000Y-974365000D01*
X672109000Y-975590000D02*
X672109000Y-974325000D01*
X672109000Y-978935000D02*
X672109000Y-977670000D01*
X672149000Y-975590000D02*
X672149000Y-974287000D01*
X672149000Y-978973000D02*
X672149000Y-977670000D01*
X672189000Y-975590000D02*
X672189000Y-974250000D01*
X672189000Y-979010000D02*
X672189000Y-977670000D01*
X672229000Y-975590000D02*
X672229000Y-974214000D01*
X672229000Y-979046000D02*
X672229000Y-977670000D01*
X672269000Y-975590000D02*
X672269000Y-974180000D01*
X672269000Y-979080000D02*
X672269000Y-977670000D01*
X672309000Y-975590000D02*
X672309000Y-974146000D01*
X672309000Y-979114000D02*
X672309000Y-977670000D01*
X672349000Y-975590000D02*
X672349000Y-974114000D01*
X672349000Y-979146000D02*
X672349000Y-977670000D01*
X672389000Y-975590000D02*
X672389000Y-974082000D01*
X672389000Y-979178000D02*
X672389000Y-977670000D01*
X672429000Y-975590000D02*
X672429000Y-974052000D01*
X672429000Y-979208000D02*
X672429000Y-977670000D01*
X672469000Y-975590000D02*
X672469000Y-974023000D01*
X672469000Y-979237000D02*
X672469000Y-977670000D01*
X672509000Y-975590000D02*
X672509000Y-973994000D01*
X672509000Y-979266000D02*
X672509000Y-977670000D01*
X672549000Y-975590000D02*
X672549000Y-973966000D01*
X672549000Y-979294000D02*
X672549000Y-977670000D01*
X672589000Y-975590000D02*
X672589000Y-973940000D01*
X672589000Y-979320000D02*
X672589000Y-977670000D01*
X672629000Y-975590000D02*
X672629000Y-973914000D01*
X672629000Y-979346000D02*
X672629000Y-977670000D01*
X672669000Y-975590000D02*
X672669000Y-973888000D01*
X672669000Y-979372000D02*
X672669000Y-977670000D01*
X672709000Y-975590000D02*
X672709000Y-973864000D01*
X672709000Y-979396000D02*
X672709000Y-977670000D01*
X672749000Y-975590000D02*
X672749000Y-973840000D01*
X672749000Y-979420000D02*
X672749000Y-977670000D01*
X672789000Y-975590000D02*
X672789000Y-973818000D01*
X672789000Y-979442000D02*
X672789000Y-977670000D01*
X672829000Y-975590000D02*
X672829000Y-973796000D01*
X672829000Y-979464000D02*
X672829000Y-977670000D01*
X672869000Y-975590000D02*
X672869000Y-973774000D01*
X672869000Y-979486000D02*
X672869000Y-977670000D01*
X672909000Y-975590000D02*
X672909000Y-973754000D01*
X672909000Y-979506000D02*
X672909000Y-977670000D01*
X672949000Y-975590000D02*
X672949000Y-973734000D01*
X672949000Y-979526000D02*
X672949000Y-977670000D01*
X672989000Y-975590000D02*
X672989000Y-973714000D01*
X672989000Y-979546000D02*
X672989000Y-977670000D01*
X673029000Y-975590000D02*
X673029000Y-973696000D01*
X673029000Y-979564000D02*
X673029000Y-977670000D01*
X673069000Y-975590000D02*
X673069000Y-973678000D01*
X673069000Y-979582000D02*
X673069000Y-977670000D01*
X673109000Y-975590000D02*
X673109000Y-973660000D01*
X673109000Y-979600000D02*
X673109000Y-977670000D01*
X673149000Y-975590000D02*
X673149000Y-973644000D01*
X673149000Y-979616000D02*
X673149000Y-977670000D01*
X673189000Y-975590000D02*
X673189000Y-973628000D01*
X673189000Y-979632000D02*
X673189000Y-977670000D01*
X673229000Y-975590000D02*
X673229000Y-973612000D01*
X673229000Y-979648000D02*
X673229000Y-977670000D01*
X673269000Y-975590000D02*
X673269000Y-973597000D01*
X673269000Y-979663000D02*
X673269000Y-977670000D01*
X673309000Y-975590000D02*
X673309000Y-973583000D01*
X673309000Y-979677000D02*
X673309000Y-977670000D01*
X673349000Y-975590000D02*
X673349000Y-973569000D01*
X673349000Y-979691000D02*
X673349000Y-977670000D01*
X673389000Y-975590000D02*
X673389000Y-973556000D01*
X673389000Y-979704000D02*
X673389000Y-977670000D01*
X673429000Y-975590000D02*
X673429000Y-973544000D01*
X673429000Y-979716000D02*
X673429000Y-977670000D01*
X673469000Y-975590000D02*
X673469000Y-973532000D01*
X673469000Y-979728000D02*
X673469000Y-977670000D01*
X673509000Y-975590000D02*
X673509000Y-973520000D01*
X673509000Y-979740000D02*
X673509000Y-977670000D01*
X673549000Y-975590000D02*
X673549000Y-973509000D01*
X673549000Y-979751000D02*
X673549000Y-977670000D01*
X673589000Y-975590000D02*
X673589000Y-973499000D01*
X673589000Y-979761000D02*
X673589000Y-977670000D01*
X673629000Y-975590000D02*
X673629000Y-973489000D01*
X673629000Y-979771000D02*
X673629000Y-977670000D01*
X673669000Y-975590000D02*
X673669000Y-973480000D01*
X673669000Y-979780000D02*
X673669000Y-977670000D01*
X673710000Y-975590000D02*
X673710000Y-973471000D01*
X673710000Y-979789000D02*
X673710000Y-977670000D01*
X673750000Y-975590000D02*
X673750000Y-973463000D01*
X673750000Y-979797000D02*
X673750000Y-977670000D01*
X673790000Y-975590000D02*
X673790000Y-973455000D01*
X673790000Y-979805000D02*
X673790000Y-977670000D01*
X673830000Y-975590000D02*
X673830000Y-973448000D01*
X673830000Y-979812000D02*
X673830000Y-977670000D01*
X673870000Y-975590000D02*
X673870000Y-973441000D01*
X673870000Y-979819000D02*
X673870000Y-977670000D01*
X673910000Y-975590000D02*
X673910000Y-973435000D01*
X673910000Y-979825000D02*
X673910000Y-977670000D01*
X673950000Y-975590000D02*
X673950000Y-973429000D01*
X673950000Y-979831000D02*
X673950000Y-977670000D01*
X673990000Y-975590000D02*
X673990000Y-973424000D01*
X673990000Y-979836000D02*
X673990000Y-977670000D01*
X674030000Y-975590000D02*
X674030000Y-973419000D01*
X674030000Y-979841000D02*
X674030000Y-977670000D01*
X674070000Y-975590000D02*
X674070000Y-973415000D01*
X674070000Y-979845000D02*
X674070000Y-977670000D01*
X674110000Y-975590000D02*
X674110000Y-973412000D01*
X674110000Y-979848000D02*
X674110000Y-977670000D01*
X674150000Y-975590000D02*
X674150000Y-973408000D01*
X674150000Y-979852000D02*
X674150000Y-977670000D01*
X674190000Y-979854000D02*
X674190000Y-973406000D01*
X674230000Y-979857000D02*
X674230000Y-973403000D01*
X674270000Y-979858000D02*
X674270000Y-973402000D01*
X674310000Y-979860000D02*
X674310000Y-973400000D01*
X674350000Y-979860000D02*
X674350000Y-973400000D01*
X674390000Y-979860000D02*
X674390000Y-973400000D01*
X677660000Y-976630000D02*
G75*
G03X677660000Y-976630000I-3270000J0D01*
G01*
D11*
X704207142Y-964700000D02*
X704111904Y-964652380D01*
X703969047Y-964652380D01*
X703826190Y-964700000D01*
X703730952Y-964795238D01*
X703683333Y-964890476D01*
X703635714Y-965080952D01*
X703635714Y-965223809D01*
X703683333Y-965414285D01*
X703730952Y-965509523D01*
X703826190Y-965604761D01*
X703969047Y-965652380D01*
X704064285Y-965652380D01*
X704207142Y-965604761D01*
X704254761Y-965557142D01*
X704254761Y-965223809D01*
X704064285Y-965223809D01*
X704683333Y-964985714D02*
X704683333Y-965652380D01*
X704683333Y-965080952D02*
X704730952Y-965033333D01*
X704826190Y-964985714D01*
X704969047Y-964985714D01*
X705064285Y-965033333D01*
X705111904Y-965128571D01*
X705111904Y-965652380D01*
X706016666Y-965652380D02*
X706016666Y-964652380D01*
X706016666Y-965604761D02*
X705921428Y-965652380D01*
X705730952Y-965652380D01*
X705635714Y-965604761D01*
X705588095Y-965557142D01*
X705540476Y-965461904D01*
X705540476Y-965176190D01*
X705588095Y-965080952D01*
X705635714Y-965033333D01*
X705730952Y-964985714D01*
X705921428Y-964985714D01*
X706016666Y-965033333D01*
X658487142Y-960890000D02*
X658391904Y-960842380D01*
X658249047Y-960842380D01*
X658106190Y-960890000D01*
X658010952Y-960985238D01*
X657963333Y-961080476D01*
X657915714Y-961270952D01*
X657915714Y-961413809D01*
X657963333Y-961604285D01*
X658010952Y-961699523D01*
X658106190Y-961794761D01*
X658249047Y-961842380D01*
X658344285Y-961842380D01*
X658487142Y-961794761D01*
X658534761Y-961747142D01*
X658534761Y-961413809D01*
X658344285Y-961413809D01*
X658963333Y-961175714D02*
X658963333Y-961842380D01*
X658963333Y-961270952D02*
X659010952Y-961223333D01*
X659106190Y-961175714D01*
X659249047Y-961175714D01*
X659344285Y-961223333D01*
X659391904Y-961318571D01*
X659391904Y-961842380D01*
X660296666Y-961842380D02*
X660296666Y-960842380D01*
X660296666Y-961794761D02*
X660201428Y-961842380D01*
X660010952Y-961842380D01*
X659915714Y-961794761D01*
X659868095Y-961747142D01*
X659820476Y-961651904D01*
X659820476Y-961366190D01*
X659868095Y-961270952D01*
X659915714Y-961223333D01*
X660010952Y-961175714D01*
X660201428Y-961175714D01*
X660296666Y-961223333D01*
X674997142Y-987560000D02*
X674901904Y-987512380D01*
X674759047Y-987512380D01*
X674616190Y-987560000D01*
X674520952Y-987655238D01*
X674473333Y-987750476D01*
X674425714Y-987940952D01*
X674425714Y-988083809D01*
X674473333Y-988274285D01*
X674520952Y-988369523D01*
X674616190Y-988464761D01*
X674759047Y-988512380D01*
X674854285Y-988512380D01*
X674997142Y-988464761D01*
X675044761Y-988417142D01*
X675044761Y-988083809D01*
X674854285Y-988083809D01*
X675473333Y-987845714D02*
X675473333Y-988512380D01*
X675473333Y-987940952D02*
X675520952Y-987893333D01*
X675616190Y-987845714D01*
X675759047Y-987845714D01*
X675854285Y-987893333D01*
X675901904Y-987988571D01*
X675901904Y-988512380D01*
X676806666Y-988512380D02*
X676806666Y-987512380D01*
X676806666Y-988464761D02*
X676711428Y-988512380D01*
X676520952Y-988512380D01*
X676425714Y-988464761D01*
X676378095Y-988417142D01*
X676330476Y-988321904D01*
X676330476Y-988036190D01*
X676378095Y-987940952D01*
X676425714Y-987893333D01*
X676520952Y-987845714D01*
X676711428Y-987845714D01*
X676806666Y-987893333D01*
X670639523Y-987512380D02*
X670972857Y-988512380D01*
X671306190Y-987512380D01*
X672068095Y-988464761D02*
X671972857Y-988512380D01*
X671782380Y-988512380D01*
X671687142Y-988464761D01*
X671639523Y-988417142D01*
X671591904Y-988321904D01*
X671591904Y-988036190D01*
X671639523Y-987940952D01*
X671687142Y-987893333D01*
X671782380Y-987845714D01*
X671972857Y-987845714D01*
X672068095Y-987893333D01*
X672925238Y-988464761D02*
X672830000Y-988512380D01*
X672639523Y-988512380D01*
X672544285Y-988464761D01*
X672496666Y-988417142D01*
X672449047Y-988321904D01*
X672449047Y-988036190D01*
X672496666Y-987940952D01*
X672544285Y-987893333D01*
X672639523Y-987845714D01*
X672830000Y-987845714D01*
X672925238Y-987893333D01*
X704016666Y-959572380D02*
X704207142Y-959572380D01*
X704302380Y-959620000D01*
X704397619Y-959715238D01*
X704445238Y-959905714D01*
X704445238Y-960239047D01*
X704397619Y-960429523D01*
X704302380Y-960524761D01*
X704207142Y-960572380D01*
X704016666Y-960572380D01*
X703921428Y-960524761D01*
X703826190Y-960429523D01*
X703778571Y-960239047D01*
X703778571Y-959905714D01*
X703826190Y-959715238D01*
X703921428Y-959620000D01*
X704016666Y-959572380D01*
X705302380Y-959905714D02*
X705302380Y-960572380D01*
X704873809Y-959905714D02*
X704873809Y-960429523D01*
X704921428Y-960524761D01*
X705016666Y-960572380D01*
X705159523Y-960572380D01*
X705254761Y-960524761D01*
X705302380Y-960477142D01*
X705635714Y-959905714D02*
X706016666Y-959905714D01*
X705778571Y-959572380D02*
X705778571Y-960429523D01*
X705826190Y-960524761D01*
X705921428Y-960572380D01*
X706016666Y-960572380D01*
X654867619Y-961842380D02*
X654867619Y-960842380D01*
X655343809Y-961175714D02*
X655343809Y-961842380D01*
X655343809Y-961270952D02*
X655391428Y-961223333D01*
X655486666Y-961175714D01*
X655629523Y-961175714D01*
X655724761Y-961223333D01*
X655772380Y-961318571D01*
X655772380Y-961842380D01*
X654830063Y-967392380D02*
X654496730Y-966916190D01*
X654258635Y-967392380D02*
X654258635Y-966392380D01*
X654639587Y-966392380D01*
X654734825Y-966440000D01*
X654782444Y-966487619D01*
X654830063Y-966582857D01*
X654830063Y-966725714D01*
X654782444Y-966820952D01*
X654734825Y-966868571D01*
X654639587Y-966916190D01*
X654258635Y-966916190D01*
X655115778Y-966392380D02*
X655449111Y-967392380D01*
X655782444Y-966392380D01*
X656068159Y-966487619D02*
X656115778Y-966440000D01*
X656211016Y-966392380D01*
X656449111Y-966392380D01*
X656544349Y-966440000D01*
X656591968Y-966487619D01*
X656639587Y-966582857D01*
X656639587Y-966678095D01*
X656591968Y-966820952D01*
X656020540Y-967392380D01*
X656639587Y-967392380D01*
X675473333Y-985802380D02*
X675140000Y-985326190D01*
X674901904Y-985802380D02*
X674901904Y-984802380D01*
X675282857Y-984802380D01*
X675378095Y-984850000D01*
X675425714Y-984897619D01*
X675473333Y-984992857D01*
X675473333Y-985135714D01*
X675425714Y-985230952D01*
X675378095Y-985278571D01*
X675282857Y-985326190D01*
X674901904Y-985326190D01*
X676330476Y-985135714D02*
X676330476Y-985802380D01*
X676092380Y-984754761D02*
X675854285Y-985469047D01*
X676473333Y-985469047D01*
X666603333Y-971907142D02*
X666555714Y-971954761D01*
X666412857Y-972002380D01*
X666317619Y-972002380D01*
X666174761Y-971954761D01*
X666079523Y-971859523D01*
X666031904Y-971764285D01*
X665984285Y-971573809D01*
X665984285Y-971430952D01*
X666031904Y-971240476D01*
X666079523Y-971145238D01*
X666174761Y-971050000D01*
X666317619Y-971002380D01*
X666412857Y-971002380D01*
X666555714Y-971050000D01*
X666603333Y-971097619D01*
X666984285Y-971097619D02*
X667031904Y-971050000D01*
X667127142Y-971002380D01*
X667365238Y-971002380D01*
X667460476Y-971050000D01*
X667508095Y-971097619D01*
X667555714Y-971192857D01*
X667555714Y-971288095D01*
X667508095Y-971430952D01*
X666936666Y-972002380D01*
X667555714Y-972002380D01*
X690713333Y-968362380D02*
X690380000Y-967886190D01*
X690141904Y-968362380D02*
X690141904Y-967362380D01*
X690522857Y-967362380D01*
X690618095Y-967410000D01*
X690665714Y-967457619D01*
X690713333Y-967552857D01*
X690713333Y-967695714D01*
X690665714Y-967790952D01*
X690618095Y-967838571D01*
X690522857Y-967886190D01*
X690141904Y-967886190D01*
X691046666Y-967362380D02*
X691713333Y-967362380D01*
X691284761Y-968362380D01*
X690713333Y-974542380D02*
X690380000Y-974066190D01*
X690141904Y-974542380D02*
X690141904Y-973542380D01*
X690522857Y-973542380D01*
X690618095Y-973590000D01*
X690665714Y-973637619D01*
X690713333Y-973732857D01*
X690713333Y-973875714D01*
X690665714Y-973970952D01*
X690618095Y-974018571D01*
X690522857Y-974066190D01*
X690141904Y-974066190D01*
X691046666Y-973542380D02*
X691665714Y-973542380D01*
X691332380Y-973923333D01*
X691475238Y-973923333D01*
X691570476Y-973970952D01*
X691618095Y-974018571D01*
X691665714Y-974113809D01*
X691665714Y-974351904D01*
X691618095Y-974447142D01*
X691570476Y-974494761D01*
X691475238Y-974542380D01*
X691189523Y-974542380D01*
X691094285Y-974494761D01*
X691046666Y-974447142D01*
X654830063Y-978792380D02*
X654496730Y-978316190D01*
X654258635Y-978792380D02*
X654258635Y-977792380D01*
X654639587Y-977792380D01*
X654734825Y-977840000D01*
X654782444Y-977887619D01*
X654830063Y-977982857D01*
X654830063Y-978125714D01*
X654782444Y-978220952D01*
X654734825Y-978268571D01*
X654639587Y-978316190D01*
X654258635Y-978316190D01*
X655115778Y-977792380D02*
X655449111Y-978792380D01*
X655782444Y-977792380D01*
X656639587Y-978792380D02*
X656068159Y-978792380D01*
X656353873Y-978792380D02*
X656353873Y-977792380D01*
X656258635Y-977935238D01*
X656163397Y-978030476D01*
X656068159Y-978078095D01*
X676703333Y-962577142D02*
X676655714Y-962624761D01*
X676512857Y-962672380D01*
X676417619Y-962672380D01*
X676274761Y-962624761D01*
X676179523Y-962529523D01*
X676131904Y-962434285D01*
X676084285Y-962243809D01*
X676084285Y-962100952D01*
X676131904Y-961910476D01*
X676179523Y-961815238D01*
X676274761Y-961720000D01*
X676417619Y-961672380D01*
X676512857Y-961672380D01*
X676655714Y-961720000D01*
X676703333Y-961767619D01*
X677655714Y-962672380D02*
X677084285Y-962672380D01*
X677370000Y-962672380D02*
X677370000Y-961672380D01*
X677274761Y-961815238D01*
X677179523Y-961910476D01*
X677084285Y-961958095D01*
X702143333Y-970732380D02*
X701810000Y-970256190D01*
X701571904Y-970732380D02*
X701571904Y-969732380D01*
X701952857Y-969732380D01*
X702048095Y-969780000D01*
X702095714Y-969827619D01*
X702143333Y-969922857D01*
X702143333Y-970065714D01*
X702095714Y-970160952D01*
X702048095Y-970208571D01*
X701952857Y-970256190D01*
X701571904Y-970256190D01*
X703000476Y-969732380D02*
X702810000Y-969732380D01*
X702714761Y-969780000D01*
X702667142Y-969827619D01*
X702571904Y-969970476D01*
X702524285Y-970160952D01*
X702524285Y-970541904D01*
X702571904Y-970637142D01*
X702619523Y-970684761D01*
X702714761Y-970732380D01*
X702905238Y-970732380D01*
X703000476Y-970684761D01*
X703048095Y-970637142D01*
X703095714Y-970541904D01*
X703095714Y-970303809D01*
X703048095Y-970208571D01*
X703000476Y-970160952D01*
X702905238Y-970113333D01*
X702714761Y-970113333D01*
X702619523Y-970160952D01*
X702571904Y-970208571D01*
X702524285Y-970303809D01*
X681172380Y-978066666D02*
X680696190Y-978400000D01*
X681172380Y-978638095D02*
X680172380Y-978638095D01*
X680172380Y-978257142D01*
X680220000Y-978161904D01*
X680267619Y-978114285D01*
X680362857Y-978066666D01*
X680505714Y-978066666D01*
X680600952Y-978114285D01*
X680648571Y-978161904D01*
X680696190Y-978257142D01*
X680696190Y-978638095D01*
X680172380Y-977161904D02*
X680172380Y-977638095D01*
X680648571Y-977685714D01*
X680600952Y-977638095D01*
X680553333Y-977542857D01*
X680553333Y-977304761D01*
X680600952Y-977209523D01*
X680648571Y-977161904D01*
X680743809Y-977114285D01*
X680981904Y-977114285D01*
X681077142Y-977161904D01*
X681124761Y-977209523D01*
X681172380Y-977304761D01*
X681172380Y-977542857D01*
X681124761Y-977638095D01*
X681077142Y-977685714D01*
X667853333Y-967092380D02*
X667520000Y-966616190D01*
X667281904Y-967092380D02*
X667281904Y-966092380D01*
X667662857Y-966092380D01*
X667758095Y-966140000D01*
X667805714Y-966187619D01*
X667853333Y-966282857D01*
X667853333Y-966425714D01*
X667805714Y-966520952D01*
X667758095Y-966568571D01*
X667662857Y-966616190D01*
X667281904Y-966616190D01*
X668234285Y-966187619D02*
X668281904Y-966140000D01*
X668377142Y-966092380D01*
X668615238Y-966092380D01*
X668710476Y-966140000D01*
X668758095Y-966187619D01*
X668805714Y-966282857D01*
X668805714Y-966378095D01*
X668758095Y-966520952D01*
X668186666Y-967092380D01*
X668805714Y-967092380D01*
X667853333Y-961842380D02*
X667520000Y-961366190D01*
X667281904Y-961842380D02*
X667281904Y-960842380D01*
X667662857Y-960842380D01*
X667758095Y-960890000D01*
X667805714Y-960937619D01*
X667853333Y-961032857D01*
X667853333Y-961175714D01*
X667805714Y-961270952D01*
X667758095Y-961318571D01*
X667662857Y-961366190D01*
X667281904Y-961366190D01*
X668805714Y-961842380D02*
X668234285Y-961842380D01*
X668520000Y-961842380D02*
X668520000Y-960842380D01*
X668424761Y-960985238D01*
X668329523Y-961080476D01*
X668234285Y-961128095D01*
X697134761Y-979967619D02*
X697039523Y-979920000D01*
X696944285Y-979824761D01*
X696801428Y-979681904D01*
X696706190Y-979634285D01*
X696610952Y-979634285D01*
X696658571Y-979872380D02*
X696563333Y-979824761D01*
X696468095Y-979729523D01*
X696420476Y-979539047D01*
X696420476Y-979205714D01*
X696468095Y-979015238D01*
X696563333Y-978920000D01*
X696658571Y-978872380D01*
X696849047Y-978872380D01*
X696944285Y-978920000D01*
X697039523Y-979015238D01*
X697087142Y-979205714D01*
X697087142Y-979539047D01*
X697039523Y-979729523D01*
X696944285Y-979824761D01*
X696849047Y-979872380D01*
X696658571Y-979872380D01*
X697420476Y-978872380D02*
X698039523Y-978872380D01*
X697706190Y-979253333D01*
X697849047Y-979253333D01*
X697944285Y-979300952D01*
X697991904Y-979348571D01*
X698039523Y-979443809D01*
X698039523Y-979681904D01*
X697991904Y-979777142D01*
X697944285Y-979824761D01*
X697849047Y-979872380D01*
X697563333Y-979872380D01*
X697468095Y-979824761D01*
X697420476Y-979777142D01*
X697134761Y-993437619D02*
X697039523Y-993390000D01*
X696944285Y-993294761D01*
X696801428Y-993151904D01*
X696706190Y-993104285D01*
X696610952Y-993104285D01*
X696658571Y-993342380D02*
X696563333Y-993294761D01*
X696468095Y-993199523D01*
X696420476Y-993009047D01*
X696420476Y-992675714D01*
X696468095Y-992485238D01*
X696563333Y-992390000D01*
X696658571Y-992342380D01*
X696849047Y-992342380D01*
X696944285Y-992390000D01*
X697039523Y-992485238D01*
X697087142Y-992675714D01*
X697087142Y-993009047D01*
X697039523Y-993199523D01*
X696944285Y-993294761D01*
X696849047Y-993342380D01*
X696658571Y-993342380D01*
X697468095Y-992437619D02*
X697515714Y-992390000D01*
X697610952Y-992342380D01*
X697849047Y-992342380D01*
X697944285Y-992390000D01*
X697991904Y-992437619D01*
X698039523Y-992532857D01*
X698039523Y-992628095D01*
X697991904Y-992770952D01*
X697420476Y-993342380D01*
X698039523Y-993342380D01*
X690784761Y-977117619D02*
X690689523Y-977070000D01*
X690594285Y-976974761D01*
X690451428Y-976831904D01*
X690356190Y-976784285D01*
X690260952Y-976784285D01*
X690308571Y-977022380D02*
X690213333Y-976974761D01*
X690118095Y-976879523D01*
X690070476Y-976689047D01*
X690070476Y-976355714D01*
X690118095Y-976165238D01*
X690213333Y-976070000D01*
X690308571Y-976022380D01*
X690499047Y-976022380D01*
X690594285Y-976070000D01*
X690689523Y-976165238D01*
X690737142Y-976355714D01*
X690737142Y-976689047D01*
X690689523Y-976879523D01*
X690594285Y-976974761D01*
X690499047Y-977022380D01*
X690308571Y-977022380D01*
X691689523Y-977022380D02*
X691118095Y-977022380D01*
X691403809Y-977022380D02*
X691403809Y-976022380D01*
X691308571Y-976165238D01*
X691213333Y-976260476D01*
X691118095Y-976308095D01*
X701492380Y-988798095D02*
X700492380Y-988798095D01*
X700492380Y-988560000D01*
X700540000Y-988417142D01*
X700635238Y-988321904D01*
X700730476Y-988274285D01*
X700920952Y-988226666D01*
X701063809Y-988226666D01*
X701254285Y-988274285D01*
X701349523Y-988321904D01*
X701444761Y-988417142D01*
X701492380Y-988560000D01*
X701492380Y-988798095D01*
X700587619Y-987845714D02*
X700540000Y-987798095D01*
X700492380Y-987702857D01*
X700492380Y-987464761D01*
X700540000Y-987369523D01*
X700587619Y-987321904D01*
X700682857Y-987274285D01*
X700778095Y-987274285D01*
X700920952Y-987321904D01*
X701492380Y-987893333D01*
X701492380Y-987274285D01*
X706132380Y-984511904D02*
X705132380Y-984511904D01*
X706132380Y-983940476D02*
X705560952Y-984369047D01*
X705132380Y-983940476D02*
X705703809Y-984511904D01*
X693872380Y-988798095D02*
X692872380Y-988798095D01*
X692872380Y-988560000D01*
X692920000Y-988417142D01*
X693015238Y-988321904D01*
X693110476Y-988274285D01*
X693300952Y-988226666D01*
X693443809Y-988226666D01*
X693634285Y-988274285D01*
X693729523Y-988321904D01*
X693824761Y-988417142D01*
X693872380Y-988560000D01*
X693872380Y-988798095D01*
X693872380Y-987274285D02*
X693872380Y-987845714D01*
X693872380Y-987560000D02*
X692872380Y-987560000D01*
X693015238Y-987655238D01*
X693110476Y-987750476D01*
X693158095Y-987845714D01*
X689232380Y-992131904D02*
X688232380Y-992131904D01*
X689232380Y-991560476D02*
X688660952Y-991989047D01*
X688232380Y-991560476D02*
X688803809Y-992131904D01*
X698313333Y-960307142D02*
X698265714Y-960354761D01*
X698122857Y-960402380D01*
X698027619Y-960402380D01*
X697884761Y-960354761D01*
X697789523Y-960259523D01*
X697741904Y-960164285D01*
X697694285Y-959973809D01*
X697694285Y-959830952D01*
X697741904Y-959640476D01*
X697789523Y-959545238D01*
X697884761Y-959450000D01*
X698027619Y-959402380D01*
X698122857Y-959402380D01*
X698265714Y-959450000D01*
X698313333Y-959497619D01*
X699218095Y-959402380D02*
X698741904Y-959402380D01*
X698694285Y-959878571D01*
X698741904Y-959830952D01*
X698837142Y-959783333D01*
X699075238Y-959783333D01*
X699170476Y-959830952D01*
X699218095Y-959878571D01*
X699265714Y-959973809D01*
X699265714Y-960211904D01*
X699218095Y-960307142D01*
X699170476Y-960354761D01*
X699075238Y-960402380D01*
X698837142Y-960402380D01*
X698741904Y-960354761D01*
X698694285Y-960307142D01*
X682347142Y-965366666D02*
X682394761Y-965414285D01*
X682442380Y-965557142D01*
X682442380Y-965652380D01*
X682394761Y-965795238D01*
X682299523Y-965890476D01*
X682204285Y-965938095D01*
X682013809Y-965985714D01*
X681870952Y-965985714D01*
X681680476Y-965938095D01*
X681585238Y-965890476D01*
X681490000Y-965795238D01*
X681442380Y-965652380D01*
X681442380Y-965557142D01*
X681490000Y-965414285D01*
X681537619Y-965366666D01*
X681775714Y-964509523D02*
X682442380Y-964509523D01*
X681394761Y-964747619D02*
X682109047Y-964985714D01*
X682109047Y-964366666D01*
X674223333Y-971907142D02*
X674175714Y-971954761D01*
X674032857Y-972002380D01*
X673937619Y-972002380D01*
X673794761Y-971954761D01*
X673699523Y-971859523D01*
X673651904Y-971764285D01*
X673604285Y-971573809D01*
X673604285Y-971430952D01*
X673651904Y-971240476D01*
X673699523Y-971145238D01*
X673794761Y-971050000D01*
X673937619Y-971002380D01*
X674032857Y-971002380D01*
X674175714Y-971050000D01*
X674223333Y-971097619D01*
X674556666Y-971002380D02*
X675175714Y-971002380D01*
X674842380Y-971383333D01*
X674985238Y-971383333D01*
X675080476Y-971430952D01*
X675128095Y-971478571D01*
X675175714Y-971573809D01*
X675175714Y-971811904D01*
X675128095Y-971907142D01*
X675080476Y-971954761D01*
X674985238Y-972002380D01*
X674699523Y-972002380D01*
X674604285Y-971954761D01*
X674556666Y-971907142D01*
M02*
